<?xml version="1.0" encoding="UTF-8" standalone="no"?>
<!-- Generator: Adobe Illustrator 21.1.0, SVG Export Plug-In . SVG Version: 6.00 Build 0)  -->

<svg
   xmlns:dc="http://purl.org/dc/elements/1.1/"
   xmlns:cc="http://creativecommons.org/ns#"
   xmlns:rdf="http://www.w3.org/1999/02/22-rdf-syntax-ns#"
   xmlns:svg="http://www.w3.org/2000/svg"
   xmlns="http://www.w3.org/2000/svg"
   xmlns:sodipodi="http://sodipodi.sourceforge.net/DTD/sodipodi-0.dtd"
   xmlns:inkscape="http://www.inkscape.org/namespaces/inkscape"
   version="1.1"
   id="Layer_1"
   x="0px"
   y="0px"
   viewBox="0 0 420.1152 77"
   xml:space="preserve"
   sodipodi:docname="ww-horizontal.svg"
   width="420.1152"
   height="77"
   inkscape:version="0.92.1 r15371"><metadata
     id="metadata123"><rdf:RDF><cc:Work
         rdf:about=""><dc:format>image/svg+xml</dc:format><dc:type
           rdf:resource="http://purl.org/dc/dcmitype/StillImage" /></cc:Work></rdf:RDF></metadata><defs
     id="defs121" /><sodipodi:namedview
     pagecolor="#ffffff"
     bordercolor="#666666"
     borderopacity="1"
     objecttolerance="10"
     gridtolerance="10"
     guidetolerance="10"
     inkscape:pageopacity="0"
     inkscape:pageshadow="2"
     inkscape:window-width="1920"
     inkscape:window-height="1148"
     id="namedview119"
     showgrid="false"
     inkscape:zoom="0.14791667"
     inkscape:cx="210"
     inkscape:cy="38.5"
     inkscape:window-x="1912"
     inkscape:window-y="-8"
     inkscape:window-maximized="1"
     inkscape:current-layer="Layer_1" /><style
     type="text/css"
     id="style2">
	.st0{fill:#FFFFFF;}
	.st1{fill:#142347;}
	.st2{fill:#00B2E3;}
</style><g
     id="g110"
     transform="translate(-750,-501.5)"><g
       id="g36"><g
         id="g10"><g
           id="g8"><path
             class="st0"
             d="M 803.3,574.5 778.6,557.6 754,574.5 v -37.1 h 11.2 v 17 l 13.5,-9.9 13.5,9.9 v -33 h 11.2 v 53.1 z"
             id="path4"
             inkscape:connector-curvature="0"
             style="fill:#ffffff" /><path
             class="st1"
             d="m 754,578.5 c -0.6,0 -1.3,-0.2 -1.9,-0.5 -1.3,-0.7 -2.1,-2.1 -2.1,-3.5 v -37.1 c 0,-2.2 1.8,-4 4,-4 h 11.2 c 2.2,0 4,1.8 4,4 v 9.1 l 7.1,-5.2 c 1.4,-1 3.3,-1 4.7,0 l 7.1,5.2 v -25.1 c 0,-2.2 1.8,-4 4,-4 h 11.2 c 2.2,0 4,1.8 4,4 v 53.1 c 0,1.5 -0.8,2.8 -2.1,3.5 -1.3,0.7 -2.9,0.6 -4.1,-0.2 l -22.4,-15.4 -22.4,15.4 c -0.7,0.5 -1.5,0.7 -2.3,0.7 z m 4,-37.1 v 25.5 l 18.4,-12.6 c 1.4,-0.9 3.2,-0.9 4.5,0 l 18.4,12.6 v -41.5 h -3.2 v 29 c 0,1.5 -0.8,2.9 -2.2,3.6 -1.3,0.7 -3,0.5 -4.2,-0.3 l -11.1,-8.2 -11.1,8.2 c -1.2,0.9 -2.8,1 -4.2,0.3 -1.3,-0.7 -2.2,-2.1 -2.2,-3.6 v -13 z"
             id="path6"
             inkscape:connector-curvature="0"
             style="fill:#142347" /></g></g><g
         id="g18"><g
           id="g16"><path
             class="st1"
             d="m 858.2,574.5 -24.7,-16.9 -24.7,16.9 v -69 H 820 v 48.9 l 13.5,-9.9 13.5,9.9 v -17 h 11.2 z"
             id="path12"
             inkscape:connector-curvature="0"
             style="fill:#142347" /><path
             class="st1"
             d="m 808.8,578.5 c -0.6,0 -1.3,-0.2 -1.9,-0.5 -1.3,-0.7 -2.1,-2.1 -2.1,-3.5 v -69 c 0,-2.2 1.8,-4 4,-4 H 820 c 2.2,0 4,1.8 4,4 v 41 l 7.1,-5.2 c 1.4,-1 3.3,-1 4.7,0 l 7.1,5.2 v -9.1 c 0,-2.2 1.8,-4 4,-4 h 11.2 c 2.2,0 4,1.8 4,4 v 37.1 c 0,1.5 -0.8,2.8 -2.1,3.5 -1.3,0.7 -2.9,0.6 -4.1,-0.2 l -22.4,-15.4 -22.4,15.4 c -0.7,0.5 -1.5,0.7 -2.3,0.7 z m 4,-69 v 57.4 l 18.4,-12.6 c 1.4,-0.9 3.2,-0.9 4.5,0 l 18.4,12.6 v -25.5 h -3.2 v 13 c 0,1.5 -0.8,2.9 -2.2,3.6 -1.3,0.7 -3,0.5 -4.2,-0.3 l -11.1,-8.2 -11.1,8.2 c -1.2,0.9 -2.8,1 -4.2,0.3 -1.3,-0.7 -2.2,-2.1 -2.2,-3.6 v -44.9 z"
             id="path14"
             inkscape:connector-curvature="0"
             style="fill:#142347" /></g></g><g
         id="g26"><g
           id="g24"><path
             class="st0"
             d="M 803.3,574.5 778.6,557.6 754,574.5 v -37.1 h 11.2 v 17 l 13.5,-9.9 13.5,9.9 v -33 h 11.2 v 53.1 z"
             id="path20"
             inkscape:connector-curvature="0"
             style="fill:#ffffff" /><path
             class="st2"
             d="m 754,575.5 c -0.2,0 -0.3,0 -0.5,-0.1 -0.3,-0.2 -0.5,-0.5 -0.5,-0.9 v -37.1 c 0,-0.6 0.4,-1 1,-1 h 11.2 c 0.6,0 1,0.4 1,1 v 15.1 l 11.9,-8.7 c 0.4,-0.3 0.8,-0.3 1.2,0 l 11.9,8.7 v -31 c 0,-0.6 0.4,-1 1,-1 h 11.2 c 0.6,0 1,0.4 1,1 v 53.1 c 0,0.4 -0.2,0.7 -0.5,0.9 -0.3,0.2 -0.7,0.1 -1,-0.1 l -24.1,-16.5 -24.1,16.5 c -0.3,0.1 -0.5,0.1 -0.7,0.1 z m 1,-37.1 v 34.2 l 23.1,-15.8 c 0.3,-0.2 0.8,-0.2 1.1,0 l 23.1,15.8 v -50.2 h -9.2 v 32 c 0,0.4 -0.2,0.7 -0.5,0.9 -0.3,0.2 -0.7,0.1 -1,-0.1 l -12.9,-9.5 -12.9,9.5 c -0.3,0.2 -0.7,0.3 -1,0.1 -0.3,-0.2 -0.5,-0.5 -0.5,-0.9 v -16 z"
             id="path22"
             inkscape:connector-curvature="0"
             style="fill:#00b2e3" /></g></g><g
         id="g34"><g
           id="g32"><path
             class="st1"
             d="m 858.2,574.5 -24.7,-16.9 -24.7,16.9 v -69 H 820 v 48.9 l 13.5,-9.9 13.5,9.9 v -17 h 11.2 z"
             id="path28"
             inkscape:connector-curvature="0"
             style="fill:#142347" /><path
             class="st2"
             d="m 858.2,575.5 c -0.2,0 -0.4,-0.1 -0.6,-0.2 l -24.1,-16.5 -24.1,16.5 c -0.3,0.2 -0.7,0.2 -1,0.1 -0.3,-0.2 -0.5,-0.5 -0.5,-0.9 v -69 c 0,-0.6 0.4,-1 1,-1 H 820 c 0.6,0 1,0.4 1,1 v 46.9 l 11.9,-8.7 c 0.4,-0.3 0.8,-0.3 1.2,0 l 11.9,8.7 v -15.1 c 0,-0.6 0.4,-1 1,-1 h 11.2 c 0.6,0 1,0.4 1,1 v 37.1 c 0,0.4 -0.2,0.7 -0.5,0.9 -0.2,0.2 -0.4,0.2 -0.5,0.2 z m -48.4,-69 v 66.1 l 23.1,-15.8 c 0.3,-0.2 0.8,-0.2 1.1,0 l 23.1,15.8 v -34.2 h -9.2 v 16 c 0,0.4 -0.2,0.7 -0.5,0.9 -0.3,0.2 -0.7,0.1 -1,-0.1 l -12.9,-9.5 -12.9,9.5 c -0.3,0.2 -0.7,0.3 -1,0.1 -0.3,-0.2 -0.5,-0.5 -0.5,-0.9 v -47.9 z"
             id="path30"
             inkscape:connector-curvature="0"
             style="fill:#00b2e3" /></g></g></g><g
       id="g108"><path
         class="st1"
         d="m 1167.4,551 c 1.7,-1.8 2.6,-4.1 2.6,-6.5 0,-3 -1.4,-5.7 -3.9,-7.6 -3.1,-2.3 -7.7,-3.5 -14.1,-3.5 -3.1,0 -6.6,0.1 -10.3,0.4 h -0.6 c -0.6,0 -1.2,0.3 -1.6,0.6 -0.5,-0.2 -1,-0.4 -1.5,-0.4 h -21.1 c -0.6,0 -1.2,0.2 -1.6,0.4 -0.5,-0.3 -1,-0.4 -1.6,-0.4 h -7.4 c -1.9,0 -3.4,1.5 -3.4,3.4 v 2.6 l -10.2,-7.1 c -1,-0.7 -2.4,-0.8 -3.5,-0.2 -0.6,0.3 -1,0.7 -1.3,1.3 -0.1,0 -0.2,0 -0.4,0 h -7.4 c -1.9,0 -3.4,1.5 -3.4,3.4 v 2.6 l -10.2,-7.1 c -1,-0.7 -2.4,-0.8 -3.5,-0.2 -0.6,0.3 -1,0.7 -1.3,1.3 -0.1,0 -0.2,0 -0.4,0 h -7.4 c -0.4,0 -0.8,0.1 -1.2,0.2 -0.6,-0.5 -1.3,-0.7 -2.1,-0.7 h -7.4 c -1.9,0 -3.4,1.5 -3.4,3.4 v 2.1 l -1.4,-1 c -1.2,-0.9 -2.8,-0.9 -4,0 l -1.4,1 v -2.1 c 0,-1.9 -1.5,-3.4 -3.4,-3.4 h -7.4 c -1.9,0 -3.4,1.5 -3.4,3.4 v 2.1 c -2.9,-3.1 -8.3,-5.6 -18,-5.6 -2.2,0 -4.8,0.1 -8.2,0.4 H 992 c -1.8,0.1 -3.1,1.6 -3.1,3.4 v 11 h -10.5 v -10.7 c 0,-1.9 -1.5,-3.4 -3.4,-3.4 h -7.4 c -1.8,0 -3.2,1.4 -3.4,3.1 -0.1,-0.1 -0.2,-0.2 -0.3,-0.3 -3.1,-2.3 -7.7,-3.5 -14.1,-3.5 -3.1,0 -6.6,0.1 -10.3,0.4 h -0.6 c -1.8,0.1 -3.1,1.6 -3.1,3.4 v 1.6 c -3.2,-3.4 -8.2,-5.4 -14.2,-5.4 -6.1,0 -11.2,2.1 -14.3,5.5 v -2 c 0,-1.9 -1.5,-3.4 -3.4,-3.4 h -7.4 c -1.9,0 -3.4,1.5 -3.4,3.4 v 2.1 l -1.4,-1 c -1.2,-0.9 -2.8,-0.9 -4,0 l -1.4,1 v -2.1 c 0,-1.9 -1.5,-3.4 -3.4,-3.4 h -7.4 c -1.9,0 -3.4,1.5 -3.4,3.4 v 22.2 c 0,1.3 0.7,2.4 1.8,3 1.1,0.6 2.5,0.5 3.5,-0.2 l 12.3,-8.4 12.3,8.4 c 0.6,0.4 1.2,0.6 1.9,0.6 0.5,0 1.1,-0.1 1.6,-0.4 1.1,-0.6 1.8,-1.7 1.8,-3 v -2.6 c 3.2,3.4 8.2,5.5 14.3,5.5 6,0 11.1,-2.1 14.2,-5.4 v 1.4 c 0,1.9 1.5,3.4 3.4,3.4 h 7.4 c 1.9,0 3.4,-1.5 3.4,-3.4 v -2 c 0.4,0 0.7,0 1.1,0 l 5.1,5.5 c 0.7,0.7 1.6,1.1 2.5,1.1 0.7,0 1.4,-0.2 2,-0.7 l 3.8,-2.8 c 0.5,1.3 1.7,2.3 3.2,2.3 h 21.8 c 0.4,0 0.8,-0.1 1.2,-0.2 0.4,0.2 0.9,0.4 1.4,0.4 h 0.6 c 3.4,0.3 6,0.4 8.2,0.4 9.7,0 15.1,-2.5 18,-5.6 v 2.8 c 0,1.3 0.7,2.4 1.8,3 1.1,0.6 2.5,0.5 3.5,-0.2 l 12.3,-8.4 12.3,8.4 c 0.6,0.4 1.2,0.6 1.9,0.6 0.5,0 1.1,-0.1 1.6,-0.4 0.4,-0.2 0.8,-0.5 1.1,-0.9 0.2,0 0.4,0.1 0.7,0.1 h 7.4 c 0.6,0 1.2,-0.2 1.6,-0.4 0.5,0.3 1,0.4 1.6,0.4 h 7.4 c 1.9,0 3.4,-1.5 3.4,-3.4 v -2.6 l 10.2,7.1 c 0.6,0.4 1.3,0.6 1.9,0.6 0.5,0 1.1,-0.1 1.6,-0.4 0.6,-0.3 1,-0.7 1.3,-1.3 0.1,0 0.2,0 0.4,0 h 7.4 c 1.9,0 3.4,-1.5 3.4,-3.4 v -2.6 l 10.2,7.1 c 0.6,0.4 1.3,0.6 1.9,0.6 0.5,0 1.1,-0.1 1.6,-0.4 0.6,-0.3 1,-0.7 1.3,-1.3 0.1,0 0.2,0 0.4,0 h 21.1 c 0.6,0 1.2,-0.2 1.7,-0.5 0.5,0.3 1.1,0.5 1.7,0.5 h 7.4 c 1.9,0 3.4,-1.5 3.4,-3.4 v -2 c 0.4,0 0.7,0 1.1,0 l 5.1,5.5 c 0.7,0.7 1.6,1.1 2.5,1.1 0.7,0 1.4,-0.2 2,-0.7 l 5.7,-4.3 c 0.8,-0.6 1.3,-1.5 1.3,-2.5 0.1,-1 -0.3,-1.9 -1,-2.6 z m -9.4,-1.2 c 0,0 0,0 0,0 0,0.1 0,0.2 0,0.3 l -0.2,-0.2 c 0,-0.1 0.1,-0.1 0.2,-0.1 z m -12.1,-0.5 c 0,0.1 0,0.1 0,0 -0.2,0.2 -0.3,0.4 -0.5,0.5 v -1.1 c 0.2,0.3 0.3,0.5 0.5,0.6 z m -24.7,-1.6 c -0.1,0.1 -0.2,0.2 -0.3,0.4 v -0.7 c 0.1,0 0.2,0.2 0.3,0.3 z m -13.2,3.1 c 0.2,-0.1 0.3,-0.1 0.5,-0.2 0.5,-0.3 0.9,-0.6 1.2,-1.1 v 2.4 z m -12,-6.1 c -0.5,0.3 -0.9,0.6 -1.2,1.1 v -2.4 l 1.7,1.2 c -0.2,0 -0.4,0 -0.5,0.1 z m -14.2,6.1 c 0.2,-0.1 0.3,-0.1 0.5,-0.2 0.5,-0.3 0.9,-0.6 1.2,-1.1 v 2.4 z m -12,-6.1 c -0.5,0.3 -0.9,0.6 -1.2,1.1 v -2.4 l 1.7,1.2 c -0.2,0 -0.4,0 -0.5,0.1 z m -25.2,5.5 c 0.2,-0.1 0.5,-0.1 0.7,-0.3 0.5,-0.3 0.9,-0.6 1.2,-1.1 v 2.7 z m -17.1,-0.3 c 0.2,0.1 0.5,0.2 0.7,0.3 l -1.9,1.3 v -2.7 c 0.2,0.5 0.7,0.9 1.2,1.1 z m -71.7,-0.1 c 0,0 0,0 0,0 0,0.1 0,0.2 0,0.3 l -0.2,-0.2 c 0,-0.1 0.1,-0.1 0.2,-0.1 z m -12.1,-0.5 c 0,0.1 0,0.1 0,0 -0.2,0.2 -0.3,0.4 -0.5,0.6 v -1.1 c 0.2,0.2 0.4,0.4 0.5,0.5 z m -45.7,0.9 c 0.2,-0.1 0.5,-0.1 0.7,-0.3 0.5,-0.3 0.9,-0.6 1.2,-1.1 v 2.7 z m -17.2,-0.3 c 0.2,0.1 0.5,0.2 0.7,0.3 l -1.9,1.3 v -2.7 c 0.3,0.5 0.7,0.9 1.2,1.1 z"
         id="path38"
         inkscape:connector-curvature="0"
         style="fill:#142347" /><g
         id="g106"><g
           id="g44"><path
             class="st0"
             d="m 921.6,537.4 c -8.3,0 -13.8,4.4 -13.8,10.3 0,5.9 5.5,10.3 13.8,10.3 8.2,0 13.8,-4.4 13.8,-10.3 0,-5.9 -5.5,-10.3 -13.8,-10.3 z m 0,15.3 c -4,0 -7.4,-1.9 -7.4,-5 0,-3.1 3.3,-5 7.4,-5 4,0 7.3,1.9 7.3,5 0.1,3.1 -3.3,5 -7.3,5 z"
             id="path40"
             inkscape:connector-curvature="0"
             style="fill:#ffffff" /><path
             class="st2"
             d="m 921.6,537.4 c 8.2,0 13.8,4.4 13.8,10.3 0,5.9 -5.5,10.3 -13.8,10.3 -8.3,0 -13.8,-4.4 -13.8,-10.3 0,-5.9 5.6,-10.3 13.8,-10.3 m 0,15.3 c 4,0 7.3,-1.9 7.3,-5 0,-3.1 -3.3,-5 -7.3,-5 -4,0 -7.4,1.9 -7.4,5 0.1,3.1 3.4,5 7.4,5 m 0,-15.9 c -4.1,0 -7.7,1.1 -10.4,3.1 -2.6,2 -4,4.8 -4,7.8 0,3.1 1.4,5.8 4,7.8 2.6,2 6.2,3.1 10.4,3.1 8.3,0 14.4,-4.6 14.4,-10.9 0,-6.3 -6,-10.9 -14.4,-10.9 z m 0,15.3 c -3.4,0 -6.8,-1.5 -6.8,-4.4 0,-2.1 2.1,-4.4 6.8,-4.4 4.6,0 6.7,2.3 6.7,4.4 0.1,2.9 -3.3,4.4 -6.7,4.4 z"
             id="path42"
             inkscape:connector-curvature="0"
             style="fill:#00b2e3" /></g><g
           id="g50"><path
             class="st0"
             d="m 963.8,544.5 c 0,-3.7 -3.3,-7.1 -13.9,-7.1 -3.6,0 -7.1,0.2 -10,0.4 v 19.5 h 6.2 v -5.5 c 1.3,0.1 2.8,0.1 4.3,0.1 0.8,0 1.7,0 2.4,-0.1 l 5.9,6.4 4.7,-3.5 -4.3,-4.4 c 3.2,-1.2 4.7,-3.4 4.7,-5.8 z M 950,547 c -1.5,0 -2.8,-0.1 -4,-0.1 v -4.1 c 1.1,-0.1 2.5,-0.1 4,-0.1 5.7,0 7.4,1 7.4,2.1 0,1.1 -1.7,2.2 -7.4,2.2 z"
             id="path46"
             inkscape:connector-curvature="0"
             style="fill:#ffffff" /><path
             class="st2"
             d="m 949.9,537.4 c 10.6,0 13.9,3.4 13.9,7.1 0,2.4 -1.5,4.6 -4.7,6 l 4.3,4.4 -4.7,3.5 -5.9,-6.4 c -0.8,0.1 -1.6,0.1 -2.4,0.1 -1.5,0 -3,-0.1 -4.3,-0.1 v 5.5 h -6.2 V 538 c 2.9,-0.4 6.4,-0.6 10,-0.6 m 0.1,9.6 c 5.7,0 7.4,-1.1 7.4,-2.2 0,-1.1 -1.7,-2.1 -7.4,-2.1 -1.5,0 -2.8,0.1 -4,0.1 v 4.1 c 1.2,0 2.5,0.1 4,0.1 m -0.1,-10.2 c -3.1,0 -6.4,0.1 -10.1,0.4 -0.3,0 -0.6,0.3 -0.6,0.6 v 19.5 c 0,0.3 0.3,0.6 0.6,0.6 h 6.2 c 0.3,0 0.6,-0.3 0.6,-0.6 v -4.8 c 1.3,0.1 2.5,0.1 3.7,0.1 0.8,0 1.5,0 2.2,-0.1 l 5.7,6.2 c 0.1,0.1 0.3,0.2 0.5,0.2 0.1,0 0.3,0 0.4,-0.1 l 4.7,-3.5 c 0.1,-0.1 0.2,-0.3 0.2,-0.4 0,-0.2 -0.1,-0.4 -0.2,-0.5 l -3.7,-3.8 c 2.8,-1.4 4.3,-3.6 4.3,-6.2 0,-6.6 -9.1,-7.6 -14.5,-7.6 z m -3.2,6.6 c 1,0 2.1,-0.1 3.3,-0.1 5.4,0 6.8,1 6.8,1.5 0,0.6 -1.4,1.5 -6.8,1.5 -1.2,0 -2.4,0 -3.3,-0.1 z"
             id="path48"
             inkscape:connector-curvature="0"
             style="fill:#00b2e3" /></g><g
           id="g56"><polygon
             class="st0"
             points="968.3,557.3 988.9,557.3 988.9,552.2 974.5,552.2 974.5,538 968.3,538 "
             id="polygon52"
             style="fill:#ffffff" /><path
             class="st2"
             d="m 974.5,538 v 14.1 h 14.4 v 5.1 H 968.3 V 538 h 6.2 m 0,-0.6 h -6.2 c -0.3,0 -0.6,0.3 -0.6,0.6 v 19.3 c 0,0.3 0.3,0.6 0.6,0.6 h 20.6 c 0.3,0 0.6,-0.3 0.6,-0.6 v -5.1 c 0,-0.3 -0.3,-0.6 -0.6,-0.6 H 975.1 V 538 c 0,-0.3 -0.3,-0.6 -0.6,-0.6 z"
             id="path54"
             inkscape:connector-curvature="0"
             style="fill:#00b2e3" /></g><g
           id="g62"><path
             class="st0"
             d="m 1000.9,537.4 c -2.3,0 -5,0.2 -7.9,0.4 v 19.8 c 2.9,0.2 5.5,0.4 7.9,0.4 12.3,0 17.3,-4.4 17.3,-10.3 0,-5.9 -5,-10.3 -17.3,-10.3 z m 0.7,15.3 c -0.8,0 -1.7,0 -2.5,-0.1 v -9.9 c 0.8,-0.1 1.6,-0.1 2.5,-0.1 6.1,0 10.1,1.5 10.1,5 0,3.5 -4,5.1 -10.1,5.1 z"
             id="path58"
             inkscape:connector-curvature="0"
             style="fill:#ffffff" /><path
             class="st2"
             d="m 1000.9,537.4 c 12.3,0 17.3,4.4 17.3,10.3 0,5.9 -5,10.3 -17.3,10.3 -2.3,0 -5,-0.2 -7.9,-0.4 v -19.8 c 2.9,-0.2 5.5,-0.4 7.9,-0.4 m 0.7,15.3 c 6.1,0 10.1,-1.5 10.1,-5 0,-3.5 -4,-5 -10.1,-5 -0.8,0 -1.7,0 -2.5,0.1 v 9.9 c 0.8,0 1.7,0 2.5,0 m -0.7,-15.9 c -2.1,0 -4.6,0.1 -7.9,0.4 -0.3,0 -0.6,0.3 -0.6,0.6 v 19.8 c 0,0.3 0.2,0.6 0.6,0.6 3.3,0.3 5.8,0.4 7.9,0.4 15.6,0 18,-6.8 18,-10.9 -0.1,-4.1 -2.4,-10.9 -18,-10.9 z m -1.1,6.5 c 0.6,0 1.2,0 1.9,0 3.6,0 9.5,0.6 9.5,4.4 0,3.8 -6,4.4 -9.5,4.4 -0.6,0 -1.3,0 -1.9,0 z"
             id="path60"
             inkscape:connector-curvature="0"
             style="fill:#00b2e3" /></g><g
           id="g68"><rect
             x="1054.5"
             y="538"
             class="st0"
             width="6.1999998"
             height="19.299999"
             id="rect64"
             style="fill:#ffffff" /><path
             class="st2"
             d="m 1060.7,538 v 19.3 h -6.2 V 538 h 6.2 m 0,-0.6 h -6.2 c -0.3,0 -0.6,0.3 -0.6,0.6 v 19.3 c 0,0.3 0.3,0.6 0.6,0.6 h 6.2 c 0.3,0 0.6,-0.3 0.6,-0.6 V 538 c 0,-0.3 -0.3,-0.6 -0.6,-0.6 z"
             id="path66"
             inkscape:connector-curvature="0"
             style="fill:#00b2e3" /></g><g
           id="g74"><polygon
             class="st0"
             points="1065.2,557.3 1071.3,557.3 1071.3,547.7 1086.8,558.5 1086.8,538 1080.7,538 1080.7,547.6 1065.2,536.9 "
             id="polygon70"
             style="fill:#ffffff" /><path
             class="st2"
             d="m 1065.2,536.9 15.5,10.7 V 538 h 6.2 v 20.4 l -15.5,-10.7 v 9.6 h -6.2 v -20.4 m 0,-0.6 c -0.1,0 -0.2,0 -0.3,0.1 -0.2,0.1 -0.3,0.3 -0.3,0.5 v 20.4 c 0,0.3 0.3,0.6 0.6,0.6 h 6.2 c 0.3,0 0.6,-0.3 0.6,-0.6 v -8.4 l 14.5,10.1 c 0.1,0.1 0.2,0.1 0.4,0.1 0.1,0 0.2,0 0.3,-0.1 0.2,-0.1 0.3,-0.3 0.3,-0.5 V 538 c 0,-0.3 -0.3,-0.6 -0.6,-0.6 h -6.2 c -0.3,0 -0.6,0.3 -0.6,0.6 v 8.4 l -14.5,-10.1 c -0.2,0 -0.3,0 -0.4,0 z"
             id="path72"
             inkscape:connector-curvature="0"
             style="fill:#00b2e3" /></g><g
           id="g80"><polygon
             class="st0"
             points="1091.4,557.3 1097.5,557.3 1097.5,547.7 1113,558.5 1113,538 1106.9,538 1106.9,547.6 1091.4,536.9 "
             id="polygon76"
             style="fill:#ffffff" /><path
             class="st2"
             d="m 1091.4,536.9 15.5,10.7 V 538 h 6.2 v 20.4 l -15.5,-10.7 v 9.6 h -6.2 v -20.4 m 0,-0.6 c -0.1,0 -0.2,0 -0.3,0.1 -0.2,0.1 -0.3,0.3 -0.3,0.5 v 20.4 c 0,0.3 0.3,0.6 0.6,0.6 h 6.2 c 0.3,0 0.6,-0.3 0.6,-0.6 v -8.4 l 14.5,10.1 c 0.1,0.1 0.2,0.1 0.4,0.1 0.1,0 0.2,0 0.3,-0.1 0.2,-0.1 0.3,-0.3 0.3,-0.5 V 538 c 0,-0.3 -0.3,-0.6 -0.6,-0.6 h -6.2 c -0.3,0 -0.6,0.3 -0.6,0.6 v 8.4 l -14.5,-10.1 c -0.2,0 -0.3,0 -0.4,0 z"
             id="path78"
             inkscape:connector-curvature="0"
             style="fill:#00b2e3" /></g><g
           id="g86"><polygon
             class="st0"
             points="1137.4,552.2 1123.7,552.2 1123.7,550 1134.4,550 1134.4,545.4 1123.7,545.4 1123.7,543.2 1137.4,543.2 1137.4,538 1117.5,538 1117.5,557.3 1137.4,557.3 "
             id="polygon82"
             style="fill:#ffffff" /><path
             class="st2"
             d="m 1137.4,538 v 5.1 h -13.7 v 2.2 h 10.7 v 4.6 h -10.7 v 2.2 h 13.7 v 5.1 h -19.8 V 538 h 19.8 m 0,-0.6 h -19.9 c -0.3,0 -0.6,0.3 -0.6,0.6 v 19.3 c 0,0.3 0.3,0.6 0.6,0.6 h 19.8 c 0.3,0 0.6,-0.3 0.6,-0.6 v -5.1 c 0,-0.3 -0.3,-0.6 -0.6,-0.6 h -13.1 v -1 h 10.1 c 0.3,0 0.6,-0.3 0.6,-0.6 v -4.6 c 0,-0.3 -0.3,-0.6 -0.6,-0.6 h -10.1 v -1 h 13.1 c 0.3,0 0.6,-0.3 0.6,-0.6 V 538 c 0.1,-0.3 -0.1,-0.6 -0.5,-0.6 z"
             id="path84"
             inkscape:connector-curvature="0"
             style="fill:#00b2e3" /></g><g
           id="g92"><path
             class="st0"
             d="m 1166,544.5 c 0,-3.7 -3.3,-7.1 -13.9,-7.1 -3.6,0 -7.1,0.2 -10,0.4 v 19.5 h 6.2 v -5.5 c 1.3,0.1 2.8,0.1 4.3,0.1 0.8,0 1.7,0 2.4,-0.1 l 5.9,6.4 4.7,-3.5 -4.3,-4.4 c 3.2,-1.2 4.7,-3.4 4.7,-5.8 z m -13.8,2.5 c -1.5,0 -2.8,-0.1 -4,-0.1 v -4.1 c 1.1,-0.1 2.5,-0.1 4,-0.1 5.7,0 7.4,1 7.4,2.1 0,1.1 -1.8,2.2 -7.4,2.2 z"
             id="path88"
             inkscape:connector-curvature="0"
             style="fill:#ffffff" /><path
             class="st2"
             d="m 1152.1,537.4 c 10.6,0 13.9,3.4 13.9,7.1 0,2.4 -1.5,4.6 -4.7,6 l 4.3,4.4 -4.7,3.5 -5.9,-6.4 c -0.8,0.1 -1.6,0.1 -2.4,0.1 -1.5,0 -3,-0.1 -4.3,-0.1 v 5.5 h -6.2 V 538 c 2.8,-0.4 6.4,-0.6 10,-0.6 m 0.1,9.6 c 5.7,0 7.4,-1.1 7.4,-2.2 0,-1.1 -1.7,-2.1 -7.4,-2.1 -1.5,0 -2.8,0.1 -4,0.1 v 4.1 c 1.1,0 2.5,0.1 4,0.1 m -0.1,-10.2 c -3.1,0 -6.4,0.1 -10.1,0.4 -0.3,0 -0.6,0.3 -0.6,0.6 v 19.5 c 0,0.3 0.3,0.6 0.6,0.6 h 6.2 c 0.3,0 0.6,-0.3 0.6,-0.6 v -4.8 c 1.3,0.1 2.5,0.1 3.7,0.1 0.8,0 1.5,0 2.2,-0.1 l 5.7,6.2 c 0.1,0.1 0.3,0.2 0.5,0.2 0.1,0 0.3,0 0.4,-0.1 l 4.7,-3.5 c 0.1,-0.1 0.2,-0.3 0.2,-0.4 0,-0.2 -0.1,-0.4 -0.2,-0.5 l -3.7,-3.8 c 2.8,-1.4 4.3,-3.6 4.3,-6.2 0,-6.6 -9.1,-7.6 -14.5,-7.6 z m -3.3,6.6 c 1,0 2.1,-0.1 3.3,-0.1 5.4,0 6.8,1 6.8,1.5 0,0.6 -1.4,1.5 -6.8,1.5 -1.2,0 -2.4,0 -3.3,-0.1 z"
             id="path90"
             inkscape:connector-curvature="0"
             style="fill:#00b2e3" /></g><g
           id="g98"><polygon
             class="st0"
             points="882.3,546.9 882.3,537.5 876.2,537.5 876.2,557.9 889.7,548.6 903.3,557.9 903.3,537.5 897.1,537.5 897.1,546.9 889.7,541.5 "
             id="polygon94"
             style="fill:#ffffff" /><path
             class="st2"
             d="m 903.3,537.5 v 20.4 l -13.6,-9.3 -13.6,9.3 v -20.4 h 6.2 v 9.4 l 7.4,-5.4 7.4,5.4 v -9.4 h 6.2 m 0,-0.6 h -6.2 c -0.3,0 -0.6,0.3 -0.6,0.6 v 8.2 l -6.4,-4.7 c -0.1,-0.1 -0.2,-0.1 -0.4,-0.1 -0.1,0 -0.3,0 -0.4,0.1 l -6.4,4.7 v -8.2 c 0,-0.3 -0.3,-0.6 -0.6,-0.6 h -6.2 c -0.3,0 -0.6,0.3 -0.6,0.6 v 20.4 c 0,0.2 0.1,0.4 0.3,0.5 0.1,0 0.2,0.1 0.3,0.1 0.1,0 0.2,0 0.3,-0.1 l 13.2,-9.1 13.2,9.1 c 0.1,0.1 0.2,0.1 0.3,0.1 0.1,0 0.2,0 0.3,-0.1 0.2,-0.1 0.3,-0.3 0.3,-0.5 v -20.4 c 0.2,-0.3 -0.1,-0.6 -0.4,-0.6 z"
             id="path96"
             inkscape:connector-curvature="0"
             style="fill:#00b2e3" /></g><g
           id="g104"><polygon
             class="st0"
             points="1029,546.9 1029,537.5 1022.8,537.5 1022.8,557.9 1036.4,548.6 1050,557.9 1050,537.5 1043.8,537.5 1043.8,546.9 1036.4,541.5 "
             id="polygon100"
             style="fill:#ffffff" /><path
             class="st2"
             d="m 1050,537.5 v 20.4 l -13.6,-9.3 -13.6,9.3 v -20.4 h 6.2 v 9.4 l 7.4,-5.4 7.4,5.4 v -9.4 h 6.2 m 0,-0.6 h -6.2 c -0.3,0 -0.6,0.3 -0.6,0.6 v 8.2 l -6.4,-4.7 c -0.1,-0.1 -0.2,-0.1 -0.4,-0.1 -0.1,0 -0.3,0 -0.4,0.1 l -6.4,4.7 v -8.2 c 0,-0.3 -0.3,-0.6 -0.6,-0.6 h -6.2 c -0.3,0 -0.6,0.3 -0.6,0.6 v 20.4 c 0,0.2 0.1,0.4 0.3,0.5 0.1,0 0.2,0.1 0.3,0.1 0.1,0 0.2,0 0.3,-0.1 l 13.2,-9.1 13.2,9.1 c 0.1,0.1 0.2,0.1 0.3,0.1 0.1,0 0.2,0 0.3,-0.1 0.2,-0.1 0.3,-0.3 0.3,-0.5 v -20.4 c 0.2,-0.3 -0.1,-0.6 -0.4,-0.6 z"
             id="path102"
             inkscape:connector-curvature="0"
             style="fill:#00b2e3" /></g></g></g></g><g
     id="g116"
     transform="translate(-750,-501.5)"><path
       class="st2"
       d="m 867.4,578 c -0.1,0 -0.1,0 -0.1,-0.1 v -5.8 c 0,0 0,-0.1 -0.1,-0.1 h -1.9 c -0.1,0 -0.1,0 -0.1,-0.1 v -0.6 c 0,-0.1 0,-0.1 0.1,-0.1 h 4.8 c 0.1,0 0.1,0 0.1,0.1 v 0.6 c 0,0.1 0,0.1 -0.1,0.1 h -1.9 c 0,0 -0.1,0 -0.1,0.1 v 5.8 c 0,0.1 0,0.1 -0.1,0.1 z"
       id="path112"
       inkscape:connector-curvature="0"
       style="fill:#00b2e3" /><path
       class="st2"
       d="m 871.2,571.3 c 0,-0.1 0,-0.1 0.1,-0.1 h 0.7 c 0.1,0 0.1,0 0.2,0.1 l 2,4.6 v 0 l 2,-4.6 c 0,-0.1 0.1,-0.1 0.2,-0.1 h 0.7 c 0.1,0 0.1,0 0.1,0.1 v 6.6 c 0,0.1 0,0.1 -0.1,0.1 h -0.6 c -0.1,0 -0.1,0 -0.1,-0.1 v -4.8 0 l -1.7,3.8 c 0,0.1 -0.1,0.1 -0.2,0.1 H 874 c -0.1,0 -0.2,0 -0.2,-0.1 l -1.7,-3.8 v 0 4.8 c 0,0.1 0,0.1 -0.1,0.1 h -0.6 c -0.1,0 -0.1,0 -0.1,-0.1 v -6.6 z"
       id="path114"
       inkscape:connector-curvature="0"
       style="fill:#00b2e3" /></g></svg>